<svg width="16" height="16" viewBox="0 0 16 16" fill="none" xmlns="http://www.w3.org/2000/svg">
<path d="M8 6.00301C8.35024 6.00301 8.69704 6.07199 9.02062 6.20602C9.34419 6.34005 9.6382 6.5365 9.88585 6.78415C10.1335 7.03181 10.33 7.32582 10.464 7.64939C10.598 7.97297 10.667 8.31977 10.667 8.67001C10.667 9.02024 10.598 9.36705 10.464 9.69062C10.33 10.0142 10.1335 10.3082 9.88585 10.5559C9.6382 10.8035 9.34419 11 9.02062 11.134C8.69704 11.268 8.35024 11.337 8 11.337C7.29267 11.337 6.61431 11.056 6.11415 10.5559C5.61399 10.0557 5.333 9.37734 5.333 8.67001C5.333 7.96268 5.61399 7.28431 6.11415 6.78415C6.61431 6.28399 7.29267 6.00301 8 6.00301ZM8 7.00301C7.55788 7.00301 7.13388 7.17864 6.82125 7.49126C6.50863 7.80388 6.333 8.22789 6.333 8.67001C6.333 9.11212 6.50863 9.53613 6.82125 9.84875C7.13388 10.1614 7.55788 10.337 8 10.337C8.44212 10.337 8.86612 10.1614 9.17875 9.84875C9.49137 9.53613 9.667 9.11212 9.667 8.67001C9.667 8.22789 9.49137 7.80388 9.17875 7.49126C8.86612 7.17864 8.44212 7.00301 8 7.00301ZM8 3.66701C11.076 3.66701 13.73 5.76701 14.467 8.71001C14.4846 8.77427 14.4892 8.84141 14.4805 8.90747C14.4718 8.97354 14.45 9.0372 14.4164 9.09472C14.3827 9.15223 14.3379 9.20244 14.2846 9.2424C14.2313 9.28235 14.1705 9.31124 14.1058 9.32737C14.0412 9.3435 13.974 9.34654 13.9081 9.33632C13.8423 9.3261 13.7791 9.30282 13.7224 9.26785C13.6657 9.23288 13.6165 9.18693 13.5778 9.13269C13.5391 9.07845 13.5116 9.01702 13.497 8.95201C13.1876 7.72828 12.4787 6.64279 11.4826 5.86751C10.4865 5.09223 9.26018 4.67149 7.99794 4.67195C6.7357 4.67241 5.5097 5.09404 4.51418 5.87005C3.51866 6.64605 2.81054 7.73206 2.502 8.95601C2.46901 9.08381 2.38683 9.19338 2.27337 9.26083C2.15992 9.32828 2.0244 9.34813 1.89636 9.31606C1.76833 9.28398 1.65817 9.20258 1.58992 9.08961C1.52166 8.97664 1.50084 8.84127 1.532 8.71301C1.8937 7.27147 2.72655 5.99205 3.89836 5.07786C5.07017 4.16368 6.51377 3.66712 8 3.66701Z" fill="black"/>
</svg>
